<svg xmlns="http://www.w3.org/2000/svg" width="84" height="80" viewBox="0 0 84 80">
    <g fill="none" fill-rule="evenodd">
        <path fill="#EEE" d="M48.609 77.924c.435-.083.788-.154 1.2-.246.412-.09.615-.453.809-.64.506-.49 1.348-.977 2.406-1.348 2.113-.741 4.287-.734 4.855.016.568.75-.685 1.96-2.799 2.7-1.888.663-3.844.714-4.641.186a.397.397 0 0 0-.316-.076 43.44 43.44 0 0 1-2.197.43c-.466.512-1.783.959-3.33 1.04-1.11.058-2.112-.074-2.788-.331a2.847 2.847 0 0 0-.796-.149 26.345 26.345 0 0 1-2.585-.168 51.682 51.682 0 0 1-10.458-2.365c-.277-.094-1.205-.175-1.423-.144-.934.135-2.215-.043-3.534-.549-1.734-.666-3.04-1.712-3.418-2.634-.08-.192-.496-.814-.85-1.016a32.164 32.164 0 0 1-3.665-2.698c-.087-.09-.307-.188-.561-.144-.52.027-1.126-.196-1.63-.65-.83-.748-1.068-1.838-.53-2.435.537-.597 1.646-.475 2.476.273.596.536.836 1.248.806 1.829-.012.202.021.452.123.547.973.902 2.203 1.743 3.456 2.526.453.202 1.274.14 1.673.08.937-.144 2.104.068 3.57.544.635.205 2.25.154 3.014-.106.822-.28 1.93-.698 3.322-1.251.382-.152.477-.659.292-.988a2.548 2.548 0 0 1-.346-1.407c.108-1.89 2.47-3.236 5.274-3.006 2.009.164 3.7 1.092 4.458 2.3.241.386 1.167.704 1.836.556.668-.15 5.454-1.24 5.747-1.307.292-.067.509-.404.626-.558.449-.589 1.24-1.087 2.218-1.325 1.16-.284 2.29-.132 3.015.328.408.26 1.072.318 1.576.16l4.376-1.381c.308-.097.382-.485.416-.786.1-.914.743-1.913 1.777-2.611 1.562-1.054 3.427-1.02 4.167.076.739 1.096.072 2.838-1.491 3.892-1.308.882-2.83 1.002-3.723.374a1.328 1.328 0 0 0-1.118-.158l-4.47 1.41c-.564.178-.688.42-.762.708-.092.359-.315.71-.638 1.022-.252.243-.004.549.223.654.818.378 1.766.938 3.01 1.51.695.322 1.88.834 3.55 1.538.323.136.695.039.79-.046.502-.452 1.172-.564 1.603-.33.163.088.41.15.716-.017 1.128-.62 2.778-1.524 4.947-2.716.387-.212.607-.66.675-.97.111-.5.4-1.063.843-1.573.909-1.045 2.124-1.477 2.713-.964.59.512.332 1.776-.577 2.82-.841.969-1.945 1.41-2.572 1.064-.143-.08-.296-.088-.536.044l-5.551 3.044a.526.526 0 0 0-.286.347c-.078.297-.26.6-.536.849-.597.538-1.403.615-1.801.174a.851.851 0 0 1-.205-.444c-.026-.168-.063-.254-.27-.341-2.012-.853-3.428-1.469-4.246-1.846-1.4-.646-2.492-1.271-3.412-1.695-.302-.14-.609-.19-1.014-.091-1.455.355-2.88.027-3.484-.74-.078-.097-.289-.184-.562-.122l-.235.054-1.075.247-.152.034c-2.4.55-4.065.926-5.286 1.189-.338.073-.531.185-.704.495a3.16 3.16 0 0 1-.873.972c-.267.2-.39.598-.169.887.661.861 1.785 2.328 3.404 4.443.268.349.678.489 1.092.45.415-.04.27-.023.409-.03 1.095-.058 2.085.07 2.76.32.298.11.812.38 1.392.27m-11.305-5.39c-.53.08-1.095.1-1.68.053-.664-.055-1.336-.175-1.91-.38-.36-.128-1.028-.147-1.45.013-1.044.398-2.595.982-4.654 1.752-.252.094-.215.409-.118.53.256.317.422.633.478.93.082.424.352.728.687.838a50.739 50.739 0 0 0 9.873 2.188c.778.092 1.592.146 2.437.162.123-.304.514-.588 1.08-.812a5824.337 5824.337 0 0 0-3.606-4.708c-.269-.35-.759-.622-1.137-.566m-13.159.794c-1.793-.688-3.43-.771-3.655-.184-.226.587 1.046 1.62 2.84 2.31 1.793.688 3.429.77 3.654.183.117-.303-.166-.725-.714-1.158l-.1.039-.061-.161c-.502-.365-1.183-.73-1.964-1.03m20.411 5.901c1.221-.064 2.198-.37 2.181-.684-.017-.314-1.02-.516-2.24-.452-1.22.064-2.197.37-2.18.684.015.314 1.019.516 2.24.452M13.48 68.48c.416.374.923.488 1.133.254.21-.234.045-.726-.37-1.1-.416-.374-.923-.488-1.134-.254-.21.234-.044.726.371 1.1m48.266-4.303c.42.622 1.483.64 2.374.038.892-.601 1.274-1.593.855-2.215-.42-.623-1.483-.64-2.375-.038-.892.6-1.274 1.593-.854 2.215m-11.924 3.642c.176.567 1.079.851 2.019.633.939-.218 1.558-.855 1.382-1.422-.175-.568-1.079-.852-2.018-.634-.94.218-1.558.855-1.383 1.423m-17.599 1.06c-.02 1.21 1.604 2.38 3.63 2.612 2.025.232 3.685-.562 3.705-1.773.022-1.211-1.603-2.38-3.628-2.613-2.026-.232-3.685.562-3.707 1.773m38.305-.391c.21.183.795-.146 1.306-.733.511-.588.755-1.213.544-1.396-.21-.182-.794.146-1.306.734-.51.588-.754 1.212-.544 1.395m-7.911 4.74c.285-.256.384-.612.22-.793-.163-.182-.527-.122-.813.136-.286.257-.384.613-.22.794.163.182.527.12.813-.136m-11.155 4.666c.339.259 1.767.12 3.19-.31 1.424-.43 2.304-.986 1.966-1.245-.338-.259-1.767-.12-3.19.31-1.424.429-2.304.987-1.966 1.245m-6.696-66.15c.161.336.212.446.629 1.3.416.856 1.195 1.258 2.192 1.316 2.126.123 3.965 1.057 5.014 2.408.725.934 2.028 1.726 3.175 1.84 1.628.164 4.73.57 6.408 1.026 1.678.455 2.374.055 2.648-.547.434-.955 1.074-1.559 1.788-1.559 1.183 0 2.164 1.658 2.34 3.825.042.507.508 1.19.782 1.315l4.204 1.906c.248.112.374.036.406-.114.151-.683.395-1.138.647-1.124.37.019.617 1.036.552 2.27-.065 1.236-.417 2.222-.787 2.203-.276-.015-.483-.587-.544-1.39-.014-.192-.176-.411-.376-.503l-4.208-1.908c-.308-.14-.832-.112-.982.366-.413 1.323-1.17 2.208-2.034 2.208-1.114 0-2.158-1.462-2.302-3.45-.07-.967-1.21-1.244-1.904-1.408-2.459-.583-5.678-.908-6.99-1.037-.878-.087-1.994.03-2.551.916-1.05 1.664-3.238 2.809-5.77 2.809-2.696 0-5.005-1.3-5.96-3.144a1.102 1.102 0 0 0-1.138-.588c-.586.083-1.5.24-2.145.387-.39.088-.522.479-.562.784-.219 1.71-1.969 3.043-4.096 3.043-1.108 0-2.218-.376-2.959-.965-.32-.255-1.437-.665-2.36-.39-1.283.38-2.653.826-4.141 1.443-.438.182-.749.684-.739 1.286.024 1.448-1.053 2.689-2.546 3.097V41.36c1.454.384 2.522 1.564 2.546 2.978.024 1.448-1.053 2.689-2.546 3.097v10.459h-2.023V47.462c-1.488-.364-2.589-1.558-2.613-2.994-.025-1.47 1.085-2.726 2.613-3.115v-11.96c-1.488-.365-2.589-1.559-2.613-2.995a2.943 2.943 0 0 1 .744-1.986c.117-.136.263-.637-.018-1.248a38.58 38.58 0 0 1-.615-1.392c-.2-.48-.381-.94-.538-1.378-.29-.81-.596-2.087-1.116-2.246-.519-.158-.46-.148-.688-.308-.228-.161-.632-.104-.983.32-.853 1.03-1.893 2.562-2.588 3.84-.277.51-.167.723-.117.96.192.904-.237 1.759-.958 1.912-.721.154-1.461-.454-1.653-1.356-.191-.903.237-1.76.958-1.912.127-.027-.05-.072.377-.013.428.06.623-.033.773-.299.82-1.451 1.991-3.122 2.893-4.12.268-.298.37-.606.368-1.108-.005-.993.656-2.006 1.744-2.513 1.422-.663 3.035-.213 3.604 1.006.395.849-.058 1.595.892 1.99.95.395 1.323.511 2.153.77.212-.552.416-1.065.75-1.875s-.52-1.421-.734-1.84c-.76-1.491.312-3.56 2.394-4.622.43-.218.66-.345 1.337-.503.676-.159 1.096-.52 1.48-1.016 1.094-1.413 1.926-2.5 2.448-3.192.169-.225.197-.419-.04-.516a3.187 3.187 0 0 1-.661-.362c-.24-.182-.647-.118-1.427.24-.78.36-1.266.741-1.599.89-.333.15-.647.54-.777.865-.129.326-.977 1.533-1.933 2.177-1.615 1.09-3.38 1.3-3.94.47-.56-.831.295-2.388 1.91-3.478 1.079-.727 2.223-1.062 3.03-.958.14.018.537.01.835-.149.298-.16 1.251-.646 1.946-.965.311-.143.956-.391 1.291-.513.335-.12.581-.365.708-.473.723-.62 2.07-1.11 3.645-1.248 2.418-.211 4.455.487 4.549 1.56.094 1.073-1.79 2.115-4.21 2.326-.83.073-1.68.039-2.145.66-.467.622-1.256 1.65-2.372 3.089-.372.48-.19.749-.046.818.488.234 1.002.832 1.118 1.059.116.227.629.107.983-.025 1.2-.444 2.072-.741 3.231-1.157.493-.177 1.252-.439 2.277-.785.623-.211 1.118-.705 1.225-1.028.43-1.295 2.284-2.27 4.507-2.27.455 0 .523-.026 1.31.118.785.144 2.113.232 2.727.06 1.214-.34 2.756-.71 4.286-1.046l-4.468-1.844c-1.444-.182-2.563-.71-2.505-1.185.059-.477 1.287-.719 2.744-.54.935.115 1.736.375 2.175.672 1.57.067 2.958.252 4.886.63.624-.36 2.125-.281 3.756.249 2.007.652 3.452 1.739 3.228 2.428-.224.689-2.032.719-4.038.067-.472-.153-1.32-.333-1.832-.239-.512.095-.74.139-1.11.21l3.792 1.619c.827.353 2.182.117 3.106.04.924-.077 2.643.064 4.038.545 3.805 1.31 6.177 4.439 5.3 6.99-.879 2.55-4.675 3.556-8.48 2.246-3.805-1.31-6.358-4.49-5.299-6.99.421-.995.593-2.322-.618-2.84L50.675 4.34c-1.58.324-3.11.672-4.446 1.017-.864.223-1.06.887-.886 1.417.173.53.09.372.09.566 0 .572-.188 1.024-.741 1.55-.554.525-.698 1.422-.434 1.89.264.468.376.687.508.964m-5.097-1.652c-1.032-.166-1.923-.548-2.539-1.063-.301-.252-1.069-.225-1.706-.009-.976.33-1.701.58-2.172.75-.873.313-1.55.559-2.346.852-.955.352-1.91.743-2.531 1.8-.45.765-1.197 1.47-2.159 1.96a5.53 5.53 0 0 1-2.107.603c-.451.032-.871.297-1.088.821-.287.696-.538 1.32-.75 1.87.194.053.394.108.6.16 1.035.272 3.184.66 6.429 1.16.756.116 1.121-.058 1.554-.308a4.723 4.723 0 0 1 2.348-.607c.854 0 1.648.215 2.306.583.497.278 1.124.41 1.882.396a21.214 21.214 0 0 0 1.953-.175c.781-.12 1.717-1.285 1.97-1.696.268-.432.612-.83 1.018-1.182.376-.326 1.064-1.29.68-2.078-.383-.789-.388-.8-.527-1.095a20.37 20.37 0 0 0-.893-1.603c-.32-.53-1.14-1.013-1.922-1.139M29.122 21.017c.043-.255.12-.5.226-.734-3.422-.524-5.682-.93-6.798-1.222-.248-.065-.488-.13-.722-.195-.028.076-.053.15-.078.223-.288.841-.649 2.05-1.08 3.622-.128.466-.047.62.165.7.245.093.302.097.69.345.39.249.965.17 1.595-.111 1.694-.758 3.371-1.284 4.858-1.715.383-.112 1.041-.293 1.144-.913m-8.568-2.338c.018-.057.039-.115.06-.173-.841-.265-1.572-.53-2.2-.792-.762-.317-1.338-.11-1.554.029-.125.081-.051.059-.398.22-.348.163-.306 1.185.003 2.046.15.42.324.86.517 1.323.186.443.373.729.589 1.198.205.446.447.866.789.772a3.99 3.99 0 0 1 .593-.115c.277-.033.337-.224.42-.526.472-1.735.865-3.06 1.18-3.982m-1.1 28.184c1.538-.028 2.766-1.152 2.743-2.51-.023-1.36-1.288-2.438-2.826-2.41-1.537.027-2.765 1.151-2.742 2.51.023 1.359 1.288 2.438 2.826 2.41m0-18.07c1.537-.028 2.765-1.152 2.742-2.51-.023-1.36-1.288-2.438-2.826-2.41-1.537.027-2.765 1.151-2.742 2.51.023 1.359 1.288 2.438 2.826 2.41m6.343-15.232c1.535-.783 2.352-2.258 1.823-3.296-.529-1.037-2.202-1.245-3.738-.463-1.536.783-2.352 2.259-1.823 3.297.529 1.037 2.203 1.245 3.738.462m-9.692 3.638c.929-.433 1.38-1.43 1.01-2.226-.371-.796-1.425-1.09-2.354-.657-.93.433-1.381 1.43-1.01 2.226s1.425 1.09 2.354.657m-6.857 5.9c-.117-.552-.504-.938-.864-.861-.36.076-.556.586-.439 1.139.117.553.505.939.865.862.36-.077.556-.587.438-1.14m37.856-.164c2.776 0 5.027-1.593 5.027-3.556 0-1.965-2.25-3.557-5.027-3.557-2.776 0-5.027 1.592-5.027 3.557 0 1.963 2.25 3.556 5.027 3.556m19.516 2.633c.741 0 1.342-1.572 1.342-3.512s-.601-3.513-1.342-3.513c-.742 0-1.342 1.573-1.342 3.513s.6 3.512 1.342 3.512m8.188 1.404c.116.006.243-.616.284-1.39.04-.772-.022-1.403-.136-1.41-.116-.005-.244.616-.284 1.39-.04.772.021 1.403.136 1.41m-41.606-3.496c1.427 0 2.584-.89 2.584-1.99 0-1.097-1.157-1.988-2.584-1.988-1.426 0-2.582.89-2.582 1.989 0 1.099 1.156 1.99 2.582 1.99M21.798 6.832c1.058-.714 1.682-1.638 1.393-2.065-.288-.428-1.379-.195-2.436.518-1.057.713-1.681 1.638-1.393 2.065.288.427 1.379.195 2.436-.518m10.184-3.539c1.85-.162 3.307-.786 3.254-1.395-.054-.609-1.596-.97-3.446-.809-1.85.162-3.306.786-3.253 1.395.053.609 1.596.97 3.445.81m8.851 6.04c2.029 0 3.673-.893 3.673-1.995 0-1.1-1.644-1.993-3.673-1.993S37.16 6.24 37.16 7.34c0 1.102 1.644 1.994 3.673 1.994m10.909-7.25c-1.749-.338-3.036-.512-4.448-.584-.092.072-.22.134-.378.186-.174.056-.014.217.112.272.75.327 1.887.814 3.412 1.46l1.258-.194c.668-.094.889-.232.663-.414-.307-.25-.522-.497-.62-.725m3.347 1.277c1.342.436 2.506.563 2.596.284.091-.28-.924-.861-2.267-1.297-1.343-.437-2.506-.564-2.597-.284-.09.28.924.86 2.268 1.297M44.784 1.22c.894.11 1.635.066 1.655-.098.02-.165-.688-.387-1.582-.497-.893-.11-1.634-.065-1.654.1-.02.163.687.386 1.581.495m15.428 12.948c3.091 1.064 6.101.462 6.722-1.343.622-1.806-1.379-4.133-4.47-5.197-3.091-1.064-6.1-.463-6.722 1.342-.622 1.806 1.38 4.133 4.47 5.198m15.645 31.079c-.292-.062-.381-.807-.2-1.663.183-.856.567-1.5.86-1.438.292.062.381.807.199 1.663-.182.857-.566 1.5-.859 1.438m.151-.71c.12.026.298-.33.396-.794.1-.465.082-.862-.038-.887-.121-.026-.298.33-.397.794-.099.465-.081.862.04.888m-3.097-30.436c-.484.268-1.173-.044-1.536-.7-.364-.655-.264-1.404.221-1.673.486-.27 1.173.043 1.537.699.363.655.264 1.404-.222 1.674m-.303-.548c.164-.09.138-.45-.058-.803-.195-.353-.487-.565-.65-.475-.164.09-.139.45.057.804.196.352.488.565.651.474M19.439 27.88c-.967.017-1.762-.66-1.777-1.515-.014-.854.758-1.56 1.724-1.577.966-.017 1.761.66 1.776 1.514.014.854-.758 1.56-1.724 1.578m-.002 17.936c-.883.016-1.609-.603-1.622-1.383-.014-.78.692-1.426 1.574-1.442.883-.016 1.61.604 1.622 1.384.014.78-.692 1.425-1.574 1.44m27.297 1.63v10.45h-2.025v-10.44c-1.47-.374-2.554-1.561-2.578-2.986-.03-1.753 1.554-3.202 3.537-3.238 1.983-.036 3.615 1.356 3.645 3.108.024 1.458-1.069 2.708-2.579 3.106m-.971-.55c1.538-.028 2.766-1.152 2.743-2.511-.023-1.359-1.289-2.437-2.826-2.41-1.537.028-2.765 1.152-2.743 2.51.024 1.36 1.289 2.439 2.826 2.41m-.018-1.047c-.882.016-1.609-.604-1.622-1.384-.013-.78.692-1.426 1.575-1.441.883-.016 1.61.603 1.622 1.383.013.78-.692 1.426-1.575 1.442"/>
        <path fill="#FFF" d="M7.135 28.985c2.78 0 5.742.9 5.742 4.062v6.57h-1.984V33.37c0-1.506-1.702-2.694-3.841-2.665-2.14.029-4.18 1.076-4.238 2.699-.039 1.082-.039 3.152 0 6.212H.734V29.215h2.003L2.72 30.5c1.09-1.01 2.562-1.516 4.414-1.516zm69.702-.038c2.78 0 5.824.933 5.824 4.096v6.57h-1.983v-6.246c0-1.506-1.703-2.694-3.842-2.665-2.14.029-4.179 1.076-4.237 2.7-.04 1.081-.04 3.152 0 6.21h-2.08V29.212h2.003l-.017 1.286c1.036-1.034 2.48-1.55 4.332-1.55zm-46.792-.118c2.941 0 4.376.75 5.82 1.862l-1.762 1.036c-1.419-.806-2.182-1.065-3.986-1.065-1.804 0-3.765.104-3.765 1.35 0 1.247 2.649 1.291 5.555 1.503 2.907.212 4.138 1.183 4.018 3.244-.12 2.061-2.526 3.31-5.744 3.31s-5.043-.577-7.127-2.153l1.754-1.156c.869.513 2.326 1.605 5.243 1.605 2.917 0 3.811-1.05 3.826-1.556.014-.506.018-1.75-4.998-1.715-2.011.014-4.988-.632-4.833-3.163.154-2.53 3.059-3.102 6-3.102zm15.044 0c2.94 0 4.375.75 5.819 1.862l-1.762 1.036c-1.418-.806-2.18-1.065-3.985-1.065-1.805 0-3.766.104-3.766 1.35 0 1.247 2.65 1.291 5.556 1.503 2.906.212 4.137 1.183 4.018 3.244-.12 2.061-2.528 3.31-5.745 3.31s-5.043-.577-7.126-2.153l1.753-1.156c.869.513 2.326 1.605 5.244 1.605 2.916 0 3.811-1.05 3.825-1.556.015-.506.019-1.75-4.998-1.715-2.01.014-4.987-.632-4.833-3.163.155-2.53 3.059-3.102 6-3.102zM13.007 42.786l-.098 15.05-2.022.01-.032-1.353C9.845 57.685 7.4 58.08 6.067 58.08 2.822 58.08 0 56.223 0 52.654c0-3.488 2.822-5.507 6.11-5.507 2.748 0 3.732.877 4.799 1.49l.098-5.85h2zM2.111 52.654c0 2.489 1.978 3.733 4.178 3.733s4.68-.759 4.698-3.778c.018-3.02-2.785-3.804-4.632-3.79-1.846.014-4.244 1.224-4.244 3.835zm58.23-23.713c4.715.084 5.348 1.57 5.338 3.604-.011 2.035.022 2.363 0 4.27-.023 1.907.974 1.316 1.856 1.455.012.406.02.892.024 1.46-1.44.105-2.409.057-2.906-.147-.496-.205-.802-.7-.918-1.485-1.218 1.514-2.756 1.941-4.733 1.941-3.105 0-5.221-1.226-5.221-3.58 0-2.54 2.552-3.294 5.305-3.294 1 0 2.539.013 4.613.04 0-2.086-.149-2.659-3.271-2.77-1.651-.06-3.768.306-3.765 1.29l-2.139-.032c.325-2.875 4.217-2.78 5.817-2.752zm-4.459 7.5c0 1.444 1.915 2.214 3.393 2.03 3.09-.382 4.558-1.592 4.405-3.63-2.08-.015-3.503-.034-4.269-.06-2.03-.066-3.529.275-3.529 1.66zm13.95 10.68c4.714.085 5.347 1.571 5.336 3.606-.01 2.034.023 2.362 0 4.27-.022 1.906.975 1.316 1.856 1.454.012.406.02.892.025 1.46-1.441.106-2.41.057-2.906-.148-.496-.204-.803-.698-.919-1.484-1.218 1.514-2.755 1.942-4.731 1.942-3.106 0-5.222-1.227-5.222-3.582 0-2.54 2.552-3.293 5.305-3.293 1.001 0 2.539.013 4.613.04 0-2.087-.149-2.659-3.272-2.771-1.65-.06-3.767.306-3.764 1.29l-2.138-.032c.323-2.874 4.215-2.78 5.816-2.752zm-4.46 7.5c0 1.446 1.915 2.214 3.393 2.032 3.09-.382 4.558-1.593 4.405-3.632-2.08-.014-3.504-.034-4.27-.058-2.029-.067-3.529.274-3.529 1.658zm-26.756-7.189v9.85c0 4.231-2.927 4.908-6.153 5.065-1.935.094-6.53-.272-6.307-3.784l2.046-.065c.002 1.555 1.99 2.111 3.751 2.111 1.762 0 4.508-.397 4.718-2.258l-.1-2.1c-1.671 1.378-3.236 1.68-4.81 1.672-3.254-.016-6.085-1.786-6.085-5.296 0-3.47 2.831-5.51 6.13-5.456 2.743.046 3.985.83 4.82 1.542l.017-1.28h1.973zm-6.632 8.826c2.192.01 4.642-1.143 4.65-3.669.01-2.525-2.737-3.786-4.583-3.773-1.846.014-4.258 1.203-4.258 3.811 0 2.448 2 3.622 4.191 3.631zm27.057-8.932v1.492h-2.914v5.945c0 1.861 1.724 1.342 2.826 1.342-.002.578-.018 1.273.005 1.79-2.853.04-5.045.61-4.851-3.156v-5.92h-1.804v-1.493h1.804v-3.48h2.02v3.48h2.914zM80.79 57.893h2.277v-15.05H80.79v15.05z"/>
    </g>
</svg>
